<svg xmlns="http://www.w3.org/2000/svg" viewBox="0 0 1536 1536" width="1536" height="1536">
<rect x="62" y="71" width="1413" height="1388" rx="175" ry="175" fill="#ffffff"/>
<path d="M 384.00 423.00 L 377.00 433.00 L 370.00 447.00 L 368.00 457.00 L 366.00 460.00 L 365.00 473.00 L 364.00 474.00 L 364.00 1074.00 L 365.00 1075.00 L 366.00 1088.00 L 368.00 1091.00 L 370.00 1100.00 L 372.00 1102.00 L 371.00 1103.00 L 373.00 1105.00 L 377.00 1115.00 L 387.00 1129.00 L 399.00 1141.00 L 414.00 1151.00 L 425.00 1155.00 L 427.00 1157.00 L 449.00 1162.00 L 1085.00 1162.00 L 1088.00 1160.00 L 1099.00 1159.00 L 1105.00 1157.00 L 1107.00 1155.00 L 1119.00 1150.00 L 1128.00 1143.00 L 1131.00 1142.00 L 1147.00 1126.00 L 1158.00 1109.00 L 1160.00 1101.00 L 1163.00 1096.00 L 1167.00 1075.00 L 1167.00 904.00 L 1165.00 904.00 L 1137.00 932.00 L 1137.00 1072.00 L 1133.00 1088.00 L 1123.00 1106.00 L 1113.00 1116.00 L 1105.00 1122.00 L 1095.00 1127.00 L 1092.00 1127.00 L 1082.00 1131.00 L 450.00 1131.00 L 430.00 1124.00 L 418.00 1116.00 L 409.00 1107.00 L 403.00 1098.00 L 398.00 1087.00 L 394.00 1068.00 L 395.00 1063.00 L 394.00 1060.00 L 394.00 824.00 L 395.00 823.00 L 394.00 820.00 L 395.00 815.00 L 395.00 798.00 L 394.00 797.00 L 394.00 730.00 L 395.00 729.00 L 395.00 706.00 L 394.00 705.00 L 394.00 596.00 L 396.00 586.00 L 1136.00 586.00 L 1137.00 587.00 L 1137.00 674.00 L 1149.00 669.00 L 1166.00 668.00 L 1167.00 667.00 L 1167.00 469.00 L 1165.00 465.00 L 1163.00 452.00 L 1159.00 444.00 L 1158.00 439.00 L 1149.00 425.00 L 1134.00 409.00 L 1126.00 403.00 L 1111.00 395.00 L 1109.00 395.00 L 1107.00 393.00 L 1086.00 388.00 L 1012.00 388.00 L 1010.00 386.00 L 1011.00 383.00 L 1010.00 382.00 L 1011.00 358.00 L 1010.00 357.00 L 1010.00 351.00 L 1005.00 339.00 L 999.00 330.00 L 991.00 323.00 L 981.00 317.00 L 969.00 314.00 L 956.00 314.00 L 943.00 317.00 L 929.00 326.00 L 921.00 335.00 L 915.00 348.00 L 914.00 353.00 L 913.00 386.00 L 911.00 388.00 L 626.00 388.00 L 624.00 386.00 L 625.00 383.00 L 624.00 352.00 L 621.00 343.00 L 616.00 334.00 L 604.00 322.00 L 595.00 317.00 L 582.00 314.00 L 570.00 314.00 L 560.00 316.00 L 550.00 321.00 L 537.00 333.00 L 533.00 339.00 L 528.00 354.00 L 528.00 387.00 L 527.00 388.00 L 450.00 388.00 L 449.00 389.00 L 443.00 389.00 L 428.00 392.00 L 421.00 396.00 L 414.00 398.00 L 411.00 401.00 L 404.00 404.00 Z M 395.00 474.00 L 397.00 465.00 L 402.00 452.00 L 409.00 442.00 L 417.00 434.00 L 428.00 426.00 L 438.00 422.00 L 441.00 422.00 L 443.00 420.00 L 445.00 421.00 L 448.00 419.00 L 527.00 419.00 L 528.00 420.00 L 528.00 445.00 L 529.00 450.00 L 535.00 463.00 L 550.00 478.00 L 558.00 482.00 L 570.00 485.00 L 583.00 485.00 L 595.00 482.00 L 604.00 477.00 L 605.00 475.00 L 614.00 468.00 L 620.00 458.00 L 624.00 446.00 L 624.00 440.00 L 625.00 439.00 L 624.00 430.00 L 625.00 429.00 L 625.00 420.00 L 626.00 419.00 L 912.00 419.00 L 913.00 420.00 L 914.00 447.00 L 919.00 460.00 L 923.00 466.00 L 932.00 475.00 L 944.00 482.00 L 956.00 485.00 L 969.00 485.00 L 981.00 482.00 L 991.00 476.00 L 998.00 470.00 L 1005.00 460.00 L 1010.00 446.00 L 1010.00 435.00 L 1011.00 434.00 L 1010.00 420.00 L 1011.00 419.00 L 1084.00 419.00 L 1100.00 424.00 L 1110.00 430.00 L 1122.00 441.00 L 1132.00 457.00 L 1137.00 475.00 L 1137.00 554.00 L 1136.00 555.00 L 396.00 555.00 L 395.00 554.00 L 395.00 539.00 L 394.00 538.00 L 394.00 485.00 L 395.00 484.00 Z M 959.00 344.00 L 965.00 344.00 L 967.00 346.00 L 973.00 348.00 L 978.00 354.00 L 980.00 359.00 L 980.00 440.00 L 975.00 449.00 L 967.00 454.00 L 958.00 454.00 L 953.00 452.00 L 946.00 445.00 L 944.00 439.00 L 944.00 359.00 L 948.00 351.00 Z M 573.00 344.00 L 579.00 344.00 L 587.00 348.00 L 592.00 354.00 L 594.00 360.00 L 594.00 439.00 L 593.00 443.00 L 589.00 449.00 L 580.00 454.00 L 572.00 454.00 L 566.00 451.00 L 561.00 446.00 L 558.00 438.00 L 558.00 360.00 L 561.00 353.00 L 567.00 347.00 L 571.00 346.00 Z" fill="#000000" fill-rule="evenodd"/>
<path d="M 1211.00 723.00 L 1195.00 712.00 L 1190.00 711.00 L 1188.00 709.00 L 1178.00 707.00 L 1162.00 707.00 L 1153.00 709.00 L 1135.00 718.00 L 962.00 896.00 L 888.00 971.00 L 883.00 979.00 L 875.00 1004.00 L 873.00 1006.00 L 874.00 1007.00 L 872.00 1009.00 L 864.00 1033.00 L 861.00 1038.00 L 859.00 1046.00 L 857.00 1048.00 L 853.00 1062.00 L 851.00 1064.00 L 848.00 1075.00 L 843.00 1086.00 L 843.00 1095.00 L 848.00 1103.00 L 857.00 1107.00 L 862.00 1107.00 L 883.00 1098.00 L 885.00 1096.00 L 886.00 1097.00 L 887.00 1095.00 L 892.00 1094.00 L 900.00 1089.00 L 907.00 1087.00 L 913.00 1083.00 L 920.00 1081.00 L 924.00 1078.00 L 931.00 1076.00 L 945.00 1068.00 L 952.00 1066.00 L 956.00 1063.00 L 966.00 1059.00 L 1089.00 931.00 L 1215.00 804.00 L 1223.00 792.00 L 1225.00 787.00 L 1225.00 784.00 L 1228.00 777.00 L 1229.00 760.00 L 1228.00 759.00 L 1228.00 753.00 L 1223.00 739.00 Z" fill="#000000" fill-rule="evenodd"/>
<path d="M 519.00 811.00 L 516.00 817.00 L 516.00 894.00 L 517.00 897.00 L 522.00 902.00 L 525.00 903.00 L 628.00 903.00 L 635.00 898.00 L 637.00 893.00 L 637.00 817.00 L 633.00 810.00 L 627.00 807.00 L 525.00 807.00 Z" fill="#000000" fill-rule="evenodd"/>
<path d="M 698.00 814.00 L 697.00 818.00 L 697.00 831.00 L 698.00 832.00 L 698.00 855.00 L 697.00 856.00 L 698.00 891.00 L 697.00 892.00 L 699.00 898.00 L 703.00 902.00 L 706.00 903.00 L 810.00 903.00 L 816.00 899.00 L 818.00 895.00 L 818.00 815.00 L 815.00 810.00 L 809.00 807.00 L 707.00 807.00 L 703.00 809.00 Z" fill="#000000" fill-rule="evenodd"/>
<path d="M 517.00 959.00 L 516.00 962.00 L 516.00 1040.00 L 520.00 1046.00 L 525.00 1048.00 L 627.00 1048.00 L 631.00 1047.00 L 636.00 1042.00 L 637.00 1039.00 L 637.00 963.00 L 635.00 958.00 L 631.00 954.00 L 628.00 953.00 L 525.00 953.00 Z" fill="#000000" fill-rule="evenodd"/>
<path d="M 699.00 958.00 L 697.00 963.00 L 697.00 983.00 L 698.00 984.00 L 698.00 1019.00 L 697.00 1020.00 L 698.00 1037.00 L 697.00 1039.00 L 703.00 1047.00 L 706.00 1048.00 L 810.00 1048.00 L 817.00 1043.00 L 818.00 1040.00 L 818.00 961.00 L 815.00 956.00 L 810.00 953.00 L 707.00 953.00 Z" fill="#000000" fill-rule="evenodd"/>
<path d="M 998.00 667.00 L 993.00 663.00 L 988.00 663.00 L 987.00 662.00 L 984.00 663.00 L 974.00 663.00 L 973.00 662.00 L 969.00 663.00 L 886.00 663.00 L 884.00 664.00 L 879.00 671.00 L 879.00 679.00 L 878.00 680.00 L 878.00 707.00 L 879.00 708.00 L 878.00 712.00 L 878.00 735.00 L 879.00 736.00 L 879.00 748.00 L 881.00 753.00 L 884.00 756.00 L 887.00 757.00 L 992.00 757.00 L 994.00 756.00 L 1000.00 749.00 L 1000.00 671.00 Z" fill="#000000" fill-rule="evenodd"/>
<path d="M 518.00 667.00 L 516.00 672.00 L 516.00 748.00 L 520.00 755.00 L 524.00 757.00 L 629.00 757.00 L 635.00 753.00 L 637.00 748.00 L 637.00 672.00 L 635.00 667.00 L 632.00 664.00 L 629.00 663.00 L 530.00 663.00 L 528.00 662.00 L 521.00 664.00 Z" fill="#000000" fill-rule="evenodd"/>
<path d="M 700.00 666.00 L 697.00 672.00 L 698.00 677.00 L 698.00 703.00 L 697.00 704.00 L 697.00 711.00 L 698.00 712.00 L 698.00 718.00 L 697.00 719.00 L 698.00 720.00 L 698.00 745.00 L 697.00 747.00 L 698.00 751.00 L 705.00 757.00 L 811.00 757.00 L 817.00 752.00 L 818.00 750.00 L 818.00 670.00 L 815.00 665.00 L 805.00 662.00 L 802.00 663.00 L 714.00 663.00 L 710.00 662.00 L 705.00 663.00 Z" fill="#000000" fill-rule="evenodd"/>
<path d="M 922.00 1102.00 L 923.00 1105.00 L 927.00 1108.00 L 928.00 1107.00 L 932.00 1108.00 L 946.00 1108.00 L 947.00 1107.00 L 1003.00 1107.00 L 1004.00 1108.00 L 1020.00 1107.00 L 1021.00 1108.00 L 1032.00 1108.00 L 1039.00 1105.00 L 1043.00 1100.00 L 1044.00 1089.00 L 1039.00 1082.00 L 1032.00 1079.00 L 968.00 1079.00 L 966.00 1081.00 L 946.00 1089.00 L 940.00 1093.00 L 932.00 1095.00 L 928.00 1098.00 L 926.00 1098.00 Z" fill="#000000" fill-rule="evenodd"/>
</svg>
